<svg xmlns="http://www.w3.org/2000/svg" xmlns:xlink="http://www.w3.org/1999/xlink" width="500" zoomAndPan="magnify" viewBox="0 0 375 374.999991" height="500" preserveAspectRatio="xMidYMid meet" version="1.0"><defs><g/><clipPath id="9f953cf822"><path d="M 74 190 L 108 190 L 108 214 L 74 214 Z M 74 190 " clip-rule="nonzero"/></clipPath><clipPath id="0f9187eed1"><path d="M 103.671875 190.144531 L 107.21875 196.117188 L 77.84375 213.574219 L 74.296875 207.605469 Z M 103.671875 190.144531 " clip-rule="nonzero"/></clipPath><clipPath id="bbf3cc60ec"><path d="M 100 189 L 133 189 L 133 213 L 100 213 Z M 100 189 " clip-rule="nonzero"/></clipPath><clipPath id="5d6644fc35"><path d="M 100.351562 196.167969 L 104.136719 189.605469 L 132.523438 205.964844 L 128.738281 212.53125 Z M 100.351562 196.167969 " clip-rule="nonzero"/></clipPath><clipPath id="06a90ce551"><path d="M 254.621094 155.796875 L 258.371094 155.796875 L 258.371094 164.738281 L 254.621094 164.738281 Z M 254.621094 155.796875 " clip-rule="nonzero"/></clipPath><clipPath id="64995c4297"><path d="M 254 161 L 265 161 L 265 170 L 254 170 Z M 254 161 " clip-rule="nonzero"/></clipPath><clipPath id="026a71caa1"><path d="M 264.289062 165.871094 L 262.570312 169.203125 L 254.621094 165.105469 L 256.339844 161.773438 Z M 264.289062 165.871094 " clip-rule="nonzero"/></clipPath><clipPath id="340c71a144"><path d="M 81.058594 168.496094 L 116.433594 168.496094 L 116.433594 173.109375 L 81.058594 173.109375 Z M 81.058594 168.496094 " clip-rule="nonzero"/></clipPath><clipPath id="2a22fb50e8"><path d="M 80.308594 149.925781 L 115.683594 149.925781 L 115.683594 154.539062 L 80.308594 154.539062 Z M 80.308594 149.925781 " clip-rule="nonzero"/></clipPath><clipPath id="39fc7da6e9"><path d="M 93.519531 159.039062 L 115.683594 159.039062 L 115.683594 163.648438 L 93.519531 163.648438 Z M 93.519531 159.039062 " clip-rule="nonzero"/></clipPath><clipPath id="d54b816397"><path d="M 74 190 L 108 190 L 108 214 L 74 214 Z M 74 190 " clip-rule="nonzero"/></clipPath><clipPath id="a1c2e60e75"><path d="M 103.671875 190.144531 L 107.21875 196.117188 L 77.84375 213.574219 L 74.296875 207.605469 Z M 103.671875 190.144531 " clip-rule="nonzero"/></clipPath><clipPath id="0bfb9752cc"><path d="M 100 189 L 133 189 L 133 213 L 100 213 Z M 100 189 " clip-rule="nonzero"/></clipPath><clipPath id="5042a02c45"><path d="M 100.351562 196.167969 L 104.136719 189.605469 L 132.523438 205.964844 L 128.738281 212.53125 Z M 100.351562 196.167969 " clip-rule="nonzero"/></clipPath><clipPath id="3dbf6a00db"><path d="M 254.621094 155.796875 L 258.371094 155.796875 L 258.371094 164.738281 L 254.621094 164.738281 Z M 254.621094 155.796875 " clip-rule="nonzero"/></clipPath><clipPath id="25b89d8ec3"><path d="M 254 161 L 265 161 L 265 170 L 254 170 Z M 254 161 " clip-rule="nonzero"/></clipPath><clipPath id="6294453fcd"><path d="M 264.289062 165.871094 L 262.570312 169.203125 L 254.621094 165.105469 L 256.339844 161.773438 Z M 264.289062 165.871094 " clip-rule="nonzero"/></clipPath><clipPath id="212b3b3558"><path d="M 81.058594 168.496094 L 116.433594 168.496094 L 116.433594 173.109375 L 81.058594 173.109375 Z M 81.058594 168.496094 " clip-rule="nonzero"/></clipPath><clipPath id="efbf55d89f"><path d="M 80.308594 149.925781 L 115.683594 149.925781 L 115.683594 154.539062 L 80.308594 154.539062 Z M 80.308594 149.925781 " clip-rule="nonzero"/></clipPath><clipPath id="6dca6d5af4"><path d="M 93.519531 159.039062 L 115.683594 159.039062 L 115.683594 163.648438 L 93.519531 163.648438 Z M 93.519531 159.039062 " clip-rule="nonzero"/></clipPath></defs><rect x="-37.5" width="450" fill="#ffffff" y="-37.499999" height="449.999989" fill-opacity="1"/><rect x="-37.5" width="450" fill="#ff914d" y="-37.499999" height="449.999989" fill-opacity="1"/><g fill="#ffffff" fill-opacity="1"><g transform="translate(81.188812, 253.118765)"><g><path d="M 30.265625 -51.5 L 42.625 -51.5 L 42.625 0 L 30.265625 0 L 30.265625 -20.203125 L 14.734375 -20.203125 L 14.734375 0 L 2.375 0 L 2.375 -51.5 L 14.734375 -51.5 L 14.734375 -31.296875 L 30.265625 -31.296875 Z M 30.265625 -51.5 "/></g></g></g><g fill="#ffffff" fill-opacity="1"><g transform="translate(126.183677, 253.118765)"><g><path d="M 21.15625 -40.8125 C 26.8125 -40.863281 31.617188 -38.90625 35.578125 -34.9375 C 39.585938 -30.925781 41.59375 -26.117188 41.59375 -20.515625 C 41.644531 -14.867188 39.691406 -10.0625 35.734375 -6.09375 C 31.773438 -2.082031 26.992188 -0.0507812 21.390625 0 C 15.742188 0.0507812 10.910156 -1.898438 6.890625 -5.859375 C 2.878906 -9.828125 0.875 -14.632812 0.875 -20.28125 C 0.820312 -25.9375 2.773438 -30.742188 6.734375 -34.703125 C 10.691406 -38.710938 15.5 -40.75 21.15625 -40.8125 Z M 28.359375 -13.3125 C 30.316406 -15.269531 31.296875 -17.644531 31.296875 -20.4375 C 31.296875 -23.1875 30.289062 -25.566406 28.28125 -27.578125 C 26.28125 -29.472656 23.90625 -30.421875 21.15625 -30.421875 C 18.40625 -30.421875 16.054688 -29.445312 14.109375 -27.5 C 12.148438 -25.4375 11.171875 -23.054688 11.171875 -20.359375 C 11.171875 -17.617188 12.175781 -15.242188 14.1875 -13.234375 C 16.132812 -11.273438 18.507812 -10.296875 21.3125 -10.296875 C 24.164062 -10.398438 26.515625 -11.40625 28.359375 -13.3125 Z M 28.359375 -13.3125 "/></g></g></g><g fill="#ffffff" fill-opacity="1"><g transform="translate(168.643621, 253.118765)"><g><path d="M 2.375 -40.96875 L 12.671875 -40.96875 L 12.671875 -20.359375 C 12.671875 -19.566406 12.804688 -18.671875 13.078125 -17.671875 C 13.390625 -16.453125 13.863281 -15.34375 14.5 -14.34375 C 16.238281 -11.695312 18.722656 -10.375 21.953125 -10.375 C 25.484375 -10.375 28.046875 -11.722656 29.640625 -14.421875 C 30.210938 -15.367188 30.632812 -16.476562 30.90625 -17.75 C 31.113281 -18.644531 31.21875 -19.539062 31.21875 -20.4375 L 31.21875 -40.96875 L 42.3125 -40.96875 L 42.3125 0 L 31.21875 0 L 31.21875 -4.28125 C 28.625 -1.425781 25.296875 0 21.234375 0 C 16.003906 0.0507812 11.566406 -1.820312 7.921875 -5.625 C 4.222656 -9.375 2.375 -14.023438 2.375 -19.578125 Z M 2.375 -40.96875 "/></g></g></g><g fill="#ffffff" fill-opacity="1"><g transform="translate(213.321629, 253.118765)"><g><path d="M 18.859375 0 C 16.109375 0 13.703125 -0.421875 11.640625 -1.265625 C 10.003906 -1.847656 8.316406 -2.929688 6.578125 -4.515625 C 3.566406 -7.316406 2.191406 -10.859375 2.453125 -15.140625 L 2.453125 -16 L 11.328125 -15.84375 L 12.046875 -15.84375 L 12.046875 -15.21875 C 12.097656 -13.894531 12.390625 -12.8125 12.921875 -11.96875 C 13.816406 -10.4375 15.796875 -9.671875 18.859375 -9.671875 C 21.390625 -9.671875 23.210938 -9.957031 24.328125 -10.53125 C 24.910156 -10.800781 25.304688 -11.144531 25.515625 -11.5625 C 25.617188 -11.726562 25.671875 -11.890625 25.671875 -12.046875 L 25.75 -12.4375 C 25.75 -13.550781 24.878906 -14.453125 23.140625 -15.140625 C 22.453125 -15.398438 21.660156 -15.609375 20.765625 -15.765625 C 20.078125 -15.921875 19.3125 -16.050781 18.46875 -16.15625 C 15.289062 -16.476562 12.644531 -17.113281 10.53125 -18.0625 C 8.425781 -18.90625 6.6875 -20.066406 5.3125 -21.546875 C 3.40625 -23.710938 2.453125 -26.195312 2.453125 -29 C 2.453125 -30.738281 2.769531 -32.347656 3.40625 -33.828125 C 3.882812 -34.992188 4.519531 -36.023438 5.3125 -36.921875 C 8.164062 -40.191406 12.734375 -41.828125 19.015625 -41.828125 C 22.765625 -41.828125 25.9375 -41.085938 28.53125 -39.609375 C 30.53125 -38.503906 32.140625 -37 33.359375 -35.09375 C 34.304688 -33.675781 34.96875 -32.015625 35.34375 -30.109375 C 35.445312 -29.472656 35.523438 -28.863281 35.578125 -28.28125 L 35.578125 -26.625 L 25.984375 -26.625 L 25.984375 -27.8125 C 25.929688 -28.019531 25.90625 -28.226562 25.90625 -28.4375 C 25.75 -29.019531 25.539062 -29.5 25.28125 -29.875 C 24.113281 -31.457031 22.023438 -32.25 19.015625 -32.25 C 14.578125 -32.25 12.359375 -31.320312 12.359375 -29.46875 C 12.359375 -28.519531 12.882812 -27.753906 13.9375 -27.171875 C 15.050781 -26.484375 16.929688 -25.984375 19.578125 -25.671875 C 25.648438 -25.035156 30.054688 -23.109375 32.796875 -19.890625 C 34.648438 -17.722656 35.578125 -15.238281 35.578125 -12.4375 L 35.578125 -11.890625 L 35.5 -11.171875 C 35.5 -10.484375 35.421875 -9.847656 35.265625 -9.265625 C 34.835938 -7.578125 34.039062 -6.070312 32.875 -4.75 C 31.5625 -3.164062 29.710938 -1.976562 27.328125 -1.1875 C 24.953125 -0.394531 22.128906 0 18.859375 0 Z M 18.859375 0 "/></g></g></g><g fill="#ffffff" fill-opacity="1"><g transform="translate(251.266246, 253.118765)"><g><path d="M 41.671875 -18.625 C 41.722656 -17.507812 41.722656 -16.847656 41.671875 -16.640625 L 11.890625 -16.71875 C 12.304688 -15.5 13.070312 -14.335938 14.1875 -13.234375 C 16.238281 -11.273438 18.613281 -10.296875 21.3125 -10.296875 C 24.164062 -10.398438 26.539062 -11.40625 28.4375 -13.3125 L 28.765625 -13.625 L 39.0625 -10.375 C 36.789062 -6.84375 34.414062 -4.304688 31.9375 -2.765625 C 29.132812 -0.972656 25.617188 -0.0507812 21.390625 0 C 15.796875 0.0507812 10.988281 -1.898438 6.96875 -5.859375 C 2.957031 -9.828125 0.925781 -14.632812 0.875 -20.28125 C 0.820312 -25.882812 2.773438 -30.691406 6.734375 -34.703125 C 10.691406 -38.710938 15.5 -40.75 21.15625 -40.8125 C 26.75 -40.863281 31.554688 -38.90625 35.578125 -34.9375 C 39.585938 -30.976562 41.617188 -26.171875 41.671875 -20.515625 Z M 21.234375 -30.421875 C 18.429688 -30.421875 16.054688 -29.445312 14.109375 -27.5 C 13.097656 -26.382812 12.382812 -25.273438 11.96875 -24.171875 L 30.578125 -24.171875 C 30.160156 -25.273438 29.421875 -26.410156 28.359375 -27.578125 C 26.359375 -29.472656 23.984375 -30.421875 21.234375 -30.421875 Z M 21.234375 -30.421875 "/></g></g></g><g clip-path="url(#9f953cf822)"><g clip-path="url(#0f9187eed1)"><path fill="#004aad" d="M 103.671875 190.144531 L 107.21875 196.117188 L 77.855469 213.566406 L 74.304688 207.597656 Z M 103.671875 190.144531 " fill-opacity="1" fill-rule="nonzero"/></g></g><g clip-path="url(#bbf3cc60ec)"><g clip-path="url(#5d6644fc35)"><path fill="#004aad" d="M 100.351562 196.167969 L 104.136719 189.605469 L 132.523438 205.964844 L 128.742188 212.53125 Z M 100.351562 196.167969 " fill-opacity="1" fill-rule="nonzero"/></g></g><g fill="#004aad" fill-opacity="1"><g transform="translate(115.684605, 183.758059)"><g><path d="M 31.125 -52.96875 L 43.84375 -52.96875 L 43.84375 0 L 31.125 0 L 31.125 -20.78125 L 15.15625 -20.78125 L 15.15625 0 L 2.4375 0 L 2.4375 -52.96875 L 15.15625 -52.96875 L 15.15625 -32.1875 L 31.125 -32.1875 Z M 31.125 -52.96875 "/></g></g></g><g fill="#004aad" fill-opacity="1"><g transform="translate(165.22512, 183.758059)"><g><path d="M 42.859375 -19.15625 C 42.910156 -18.007812 42.910156 -17.328125 42.859375 -17.109375 L 12.21875 -17.1875 C 12.65625 -15.9375 13.441406 -14.742188 14.578125 -13.609375 C 16.703125 -11.597656 19.148438 -10.59375 21.921875 -10.59375 C 24.847656 -10.695312 27.289062 -11.726562 29.25 -13.6875 L 29.578125 -14.015625 L 40.171875 -10.671875 C 37.835938 -7.035156 35.394531 -4.429688 32.84375 -2.859375 C 29.957031 -1.003906 26.34375 -0.0507812 22 0 C 16.238281 0.0507812 11.296875 -1.957031 7.171875 -6.03125 C 3.046875 -10.101562 0.953125 -15.046875 0.890625 -20.859375 C 0.835938 -26.617188 2.847656 -31.5625 6.921875 -35.6875 C 10.992188 -39.820312 15.9375 -41.914062 21.75 -41.96875 C 27.507812 -42.019531 32.457031 -40.007812 36.59375 -35.9375 C 40.71875 -31.863281 42.804688 -26.921875 42.859375 -21.109375 Z M 21.84375 -31.296875 C 18.957031 -31.296875 16.507812 -30.289062 14.5 -28.28125 C 13.46875 -27.132812 12.734375 -25.992188 12.296875 -24.859375 L 31.453125 -24.859375 C 31.015625 -25.992188 30.253906 -27.160156 29.171875 -28.359375 C 27.109375 -30.316406 24.664062 -31.296875 21.84375 -31.296875 Z M 21.84375 -31.296875 "/></g></g></g><g fill="#004aad" fill-opacity="1"><g transform="translate(212.23974, 183.758059)"><g><path d="M 13.859375 -56.625 L 13.859375 0 L 2.4375 0 L 2.4375 -56.625 Z M 13.859375 -56.625 "/></g></g></g><g fill="#004aad" fill-opacity="1"><g transform="translate(231.795426, 183.758059)"><g><path d="M 24.28125 -41.96875 C 30.039062 -42.019531 34.984375 -40.007812 39.109375 -35.9375 C 43.242188 -31.863281 45.335938 -26.921875 45.390625 -21.109375 C 45.441406 -15.347656 43.429688 -10.40625 39.359375 -6.28125 C 35.285156 -2.144531 30.34375 -0.0507812 24.53125 0 C 19.800781 0 16.242188 -1.492188 13.859375 -4.484375 L 13.859375 15.640625 L 2.4375 15.640625 L 2.4375 -41.890625 L 13.859375 -41.890625 L 13.859375 -37.484375 C 16.078125 -40.359375 19.550781 -41.851562 24.28125 -41.96875 Z M 31.78125 -13.6875 C 33.84375 -15.75 34.820312 -18.191406 34.71875 -21.015625 C 34.71875 -23.898438 33.710938 -26.347656 31.703125 -28.359375 C 29.628906 -30.316406 27.179688 -31.296875 24.359375 -31.296875 C 21.484375 -31.296875 19.039062 -30.289062 17.03125 -28.28125 C 15.019531 -26.15625 14.015625 -23.707031 14.015625 -20.9375 C 14.117188 -18.007812 15.148438 -15.566406 17.109375 -13.609375 C 19.117188 -11.597656 21.5625 -10.59375 24.4375 -10.59375 C 27.375 -10.695312 29.820312 -11.726562 31.78125 -13.6875 Z M 31.78125 -13.6875 "/></g></g></g><g clip-path="url(#06a90ce551)"><path fill="#004aad" d="M 254.621094 155.796875 L 258.371094 155.796875 L 258.371094 164.746094 L 254.621094 164.746094 Z M 254.621094 155.796875 " fill-opacity="1" fill-rule="nonzero"/></g><g clip-path="url(#64995c4297)"><g clip-path="url(#026a71caa1)"><path fill="#004aad" d="M 264.289062 165.871094 L 262.570312 169.203125 L 254.613281 165.101562 L 256.332031 161.769531 Z M 264.289062 165.871094 " fill-opacity="1" fill-rule="nonzero"/></g></g><g clip-path="url(#340c71a144)"><path fill="#ffffff" d="M 81.058594 168.496094 L 116.441406 168.496094 L 116.441406 173.109375 L 81.058594 173.109375 Z M 81.058594 168.496094 " fill-opacity="1" fill-rule="nonzero"/></g><g clip-path="url(#2a22fb50e8)"><path fill="#ffffff" d="M 80.308594 149.925781 L 115.691406 149.925781 L 115.691406 154.539062 L 80.308594 154.539062 Z M 80.308594 149.925781 " fill-opacity="1" fill-rule="nonzero"/></g><g clip-path="url(#39fc7da6e9)"><path fill="#ffffff" d="M 93.519531 159.039062 L 115.675781 159.039062 L 115.675781 163.648438 L 93.519531 163.648438 Z M 93.519531 159.039062 " fill-opacity="1" fill-rule="nonzero"/></g><g fill="#ffffff" fill-opacity="1"><g transform="translate(81.188812, 253.118765)"><g><path d="M 30.265625 -51.5 L 42.625 -51.5 L 42.625 0 L 30.265625 0 L 30.265625 -20.203125 L 14.734375 -20.203125 L 14.734375 0 L 2.375 0 L 2.375 -51.5 L 14.734375 -51.5 L 14.734375 -31.296875 L 30.265625 -31.296875 Z M 30.265625 -51.5 "/></g></g></g><g fill="#ffffff" fill-opacity="1"><g transform="translate(126.183677, 253.118765)"><g><path d="M 21.15625 -40.8125 C 26.8125 -40.863281 31.617188 -38.90625 35.578125 -34.9375 C 39.585938 -30.925781 41.59375 -26.117188 41.59375 -20.515625 C 41.644531 -14.867188 39.691406 -10.0625 35.734375 -6.09375 C 31.773438 -2.082031 26.992188 -0.0507812 21.390625 0 C 15.742188 0.0507812 10.910156 -1.898438 6.890625 -5.859375 C 2.878906 -9.828125 0.875 -14.632812 0.875 -20.28125 C 0.820312 -25.9375 2.773438 -30.742188 6.734375 -34.703125 C 10.691406 -38.710938 15.5 -40.75 21.15625 -40.8125 Z M 28.359375 -13.3125 C 30.316406 -15.269531 31.296875 -17.644531 31.296875 -20.4375 C 31.296875 -23.1875 30.289062 -25.566406 28.28125 -27.578125 C 26.28125 -29.472656 23.90625 -30.421875 21.15625 -30.421875 C 18.40625 -30.421875 16.054688 -29.445312 14.109375 -27.5 C 12.148438 -25.4375 11.171875 -23.054688 11.171875 -20.359375 C 11.171875 -17.617188 12.175781 -15.242188 14.1875 -13.234375 C 16.132812 -11.273438 18.507812 -10.296875 21.3125 -10.296875 C 24.164062 -10.398438 26.515625 -11.40625 28.359375 -13.3125 Z M 28.359375 -13.3125 "/></g></g></g><g fill="#ffffff" fill-opacity="1"><g transform="translate(168.643621, 253.118765)"><g><path d="M 2.375 -40.96875 L 12.671875 -40.96875 L 12.671875 -20.359375 C 12.671875 -19.566406 12.804688 -18.671875 13.078125 -17.671875 C 13.390625 -16.453125 13.863281 -15.34375 14.5 -14.34375 C 16.238281 -11.695312 18.722656 -10.375 21.953125 -10.375 C 25.484375 -10.375 28.046875 -11.722656 29.640625 -14.421875 C 30.210938 -15.367188 30.632812 -16.476562 30.90625 -17.75 C 31.113281 -18.644531 31.21875 -19.539062 31.21875 -20.4375 L 31.21875 -40.96875 L 42.3125 -40.96875 L 42.3125 0 L 31.21875 0 L 31.21875 -4.28125 C 28.625 -1.425781 25.296875 0 21.234375 0 C 16.003906 0.0507812 11.566406 -1.820312 7.921875 -5.625 C 4.222656 -9.375 2.375 -14.023438 2.375 -19.578125 Z M 2.375 -40.96875 "/></g></g></g><g fill="#ffffff" fill-opacity="1"><g transform="translate(213.321629, 253.118765)"><g><path d="M 18.859375 0 C 16.109375 0 13.703125 -0.421875 11.640625 -1.265625 C 10.003906 -1.847656 8.316406 -2.929688 6.578125 -4.515625 C 3.566406 -7.316406 2.191406 -10.859375 2.453125 -15.140625 L 2.453125 -16 L 11.328125 -15.84375 L 12.046875 -15.84375 L 12.046875 -15.21875 C 12.097656 -13.894531 12.390625 -12.8125 12.921875 -11.96875 C 13.816406 -10.4375 15.796875 -9.671875 18.859375 -9.671875 C 21.390625 -9.671875 23.210938 -9.957031 24.328125 -10.53125 C 24.910156 -10.800781 25.304688 -11.144531 25.515625 -11.5625 C 25.617188 -11.726562 25.671875 -11.890625 25.671875 -12.046875 L 25.75 -12.4375 C 25.75 -13.550781 24.878906 -14.453125 23.140625 -15.140625 C 22.453125 -15.398438 21.660156 -15.609375 20.765625 -15.765625 C 20.078125 -15.921875 19.3125 -16.050781 18.46875 -16.15625 C 15.289062 -16.476562 12.644531 -17.113281 10.53125 -18.0625 C 8.425781 -18.90625 6.6875 -20.066406 5.3125 -21.546875 C 3.40625 -23.710938 2.453125 -26.195312 2.453125 -29 C 2.453125 -30.738281 2.769531 -32.347656 3.40625 -33.828125 C 3.882812 -34.992188 4.519531 -36.023438 5.3125 -36.921875 C 8.164062 -40.191406 12.734375 -41.828125 19.015625 -41.828125 C 22.765625 -41.828125 25.9375 -41.085938 28.53125 -39.609375 C 30.53125 -38.503906 32.140625 -37 33.359375 -35.09375 C 34.304688 -33.675781 34.96875 -32.015625 35.34375 -30.109375 C 35.445312 -29.472656 35.523438 -28.863281 35.578125 -28.28125 L 35.578125 -26.625 L 25.984375 -26.625 L 25.984375 -27.8125 C 25.929688 -28.019531 25.90625 -28.226562 25.90625 -28.4375 C 25.75 -29.019531 25.539062 -29.5 25.28125 -29.875 C 24.113281 -31.457031 22.023438 -32.25 19.015625 -32.25 C 14.578125 -32.25 12.359375 -31.320312 12.359375 -29.46875 C 12.359375 -28.519531 12.882812 -27.753906 13.9375 -27.171875 C 15.050781 -26.484375 16.929688 -25.984375 19.578125 -25.671875 C 25.648438 -25.035156 30.054688 -23.109375 32.796875 -19.890625 C 34.648438 -17.722656 35.578125 -15.238281 35.578125 -12.4375 L 35.578125 -11.890625 L 35.5 -11.171875 C 35.5 -10.484375 35.421875 -9.847656 35.265625 -9.265625 C 34.835938 -7.578125 34.039062 -6.070312 32.875 -4.75 C 31.5625 -3.164062 29.710938 -1.976562 27.328125 -1.1875 C 24.953125 -0.394531 22.128906 0 18.859375 0 Z M 18.859375 0 "/></g></g></g><g fill="#ffffff" fill-opacity="1"><g transform="translate(251.266246, 253.118765)"><g><path d="M 41.671875 -18.625 C 41.722656 -17.507812 41.722656 -16.847656 41.671875 -16.640625 L 11.890625 -16.71875 C 12.304688 -15.5 13.070312 -14.335938 14.1875 -13.234375 C 16.238281 -11.273438 18.613281 -10.296875 21.3125 -10.296875 C 24.164062 -10.398438 26.539062 -11.40625 28.4375 -13.3125 L 28.765625 -13.625 L 39.0625 -10.375 C 36.789062 -6.84375 34.414062 -4.304688 31.9375 -2.765625 C 29.132812 -0.972656 25.617188 -0.0507812 21.390625 0 C 15.796875 0.0507812 10.988281 -1.898438 6.96875 -5.859375 C 2.957031 -9.828125 0.925781 -14.632812 0.875 -20.28125 C 0.820312 -25.882812 2.773438 -30.691406 6.734375 -34.703125 C 10.691406 -38.710938 15.5 -40.75 21.15625 -40.8125 C 26.75 -40.863281 31.554688 -38.90625 35.578125 -34.9375 C 39.585938 -30.976562 41.617188 -26.171875 41.671875 -20.515625 Z M 21.234375 -30.421875 C 18.429688 -30.421875 16.054688 -29.445312 14.109375 -27.5 C 13.097656 -26.382812 12.382812 -25.273438 11.96875 -24.171875 L 30.578125 -24.171875 C 30.160156 -25.273438 29.421875 -26.410156 28.359375 -27.578125 C 26.359375 -29.472656 23.984375 -30.421875 21.234375 -30.421875 Z M 21.234375 -30.421875 "/></g></g></g><g clip-path="url(#d54b816397)"><g clip-path="url(#a1c2e60e75)"><path fill="#004aad" d="M 103.671875 190.144531 L 107.21875 196.117188 L 77.855469 213.566406 L 74.304688 207.597656 Z M 103.671875 190.144531 " fill-opacity="1" fill-rule="nonzero"/></g></g><g clip-path="url(#0bfb9752cc)"><g clip-path="url(#5042a02c45)"><path fill="#004aad" d="M 100.351562 196.167969 L 104.136719 189.605469 L 132.523438 205.964844 L 128.742188 212.53125 Z M 100.351562 196.167969 " fill-opacity="1" fill-rule="nonzero"/></g></g><g fill="#004aad" fill-opacity="1"><g transform="translate(115.684605, 183.758059)"><g><path d="M 31.125 -52.96875 L 43.84375 -52.96875 L 43.84375 0 L 31.125 0 L 31.125 -20.78125 L 15.15625 -20.78125 L 15.15625 0 L 2.4375 0 L 2.4375 -52.96875 L 15.15625 -52.96875 L 15.15625 -32.1875 L 31.125 -32.1875 Z M 31.125 -52.96875 "/></g></g></g><g fill="#004aad" fill-opacity="1"><g transform="translate(165.22512, 183.758059)"><g><path d="M 42.859375 -19.15625 C 42.910156 -18.007812 42.910156 -17.328125 42.859375 -17.109375 L 12.21875 -17.1875 C 12.65625 -15.9375 13.441406 -14.742188 14.578125 -13.609375 C 16.703125 -11.597656 19.148438 -10.59375 21.921875 -10.59375 C 24.847656 -10.695312 27.289062 -11.726562 29.25 -13.6875 L 29.578125 -14.015625 L 40.171875 -10.671875 C 37.835938 -7.035156 35.394531 -4.429688 32.84375 -2.859375 C 29.957031 -1.003906 26.34375 -0.0507812 22 0 C 16.238281 0.0507812 11.296875 -1.957031 7.171875 -6.03125 C 3.046875 -10.101562 0.953125 -15.046875 0.890625 -20.859375 C 0.835938 -26.617188 2.847656 -31.5625 6.921875 -35.6875 C 10.992188 -39.820312 15.9375 -41.914062 21.75 -41.96875 C 27.507812 -42.019531 32.457031 -40.007812 36.59375 -35.9375 C 40.71875 -31.863281 42.804688 -26.921875 42.859375 -21.109375 Z M 21.84375 -31.296875 C 18.957031 -31.296875 16.507812 -30.289062 14.5 -28.28125 C 13.46875 -27.132812 12.734375 -25.992188 12.296875 -24.859375 L 31.453125 -24.859375 C 31.015625 -25.992188 30.253906 -27.160156 29.171875 -28.359375 C 27.109375 -30.316406 24.664062 -31.296875 21.84375 -31.296875 Z M 21.84375 -31.296875 "/></g></g></g><g fill="#004aad" fill-opacity="1"><g transform="translate(212.23974, 183.758059)"><g><path d="M 13.859375 -56.625 L 13.859375 0 L 2.4375 0 L 2.4375 -56.625 Z M 13.859375 -56.625 "/></g></g></g><g fill="#004aad" fill-opacity="1"><g transform="translate(231.795426, 183.758059)"><g><path d="M 24.28125 -41.96875 C 30.039062 -42.019531 34.984375 -40.007812 39.109375 -35.9375 C 43.242188 -31.863281 45.335938 -26.921875 45.390625 -21.109375 C 45.441406 -15.347656 43.429688 -10.40625 39.359375 -6.28125 C 35.285156 -2.144531 30.34375 -0.0507812 24.53125 0 C 19.800781 0 16.242188 -1.492188 13.859375 -4.484375 L 13.859375 15.640625 L 2.4375 15.640625 L 2.4375 -41.890625 L 13.859375 -41.890625 L 13.859375 -37.484375 C 16.078125 -40.359375 19.550781 -41.851562 24.28125 -41.96875 Z M 31.78125 -13.6875 C 33.84375 -15.75 34.820312 -18.191406 34.71875 -21.015625 C 34.71875 -23.898438 33.710938 -26.347656 31.703125 -28.359375 C 29.628906 -30.316406 27.179688 -31.296875 24.359375 -31.296875 C 21.484375 -31.296875 19.039062 -30.289062 17.03125 -28.28125 C 15.019531 -26.15625 14.015625 -23.707031 14.015625 -20.9375 C 14.117188 -18.007812 15.148438 -15.566406 17.109375 -13.609375 C 19.117188 -11.597656 21.5625 -10.59375 24.4375 -10.59375 C 27.375 -10.695312 29.820312 -11.726562 31.78125 -13.6875 Z M 31.78125 -13.6875 "/></g></g></g><g clip-path="url(#3dbf6a00db)"><path fill="#004aad" d="M 254.621094 155.796875 L 258.371094 155.796875 L 258.371094 164.746094 L 254.621094 164.746094 Z M 254.621094 155.796875 " fill-opacity="1" fill-rule="nonzero"/></g><g clip-path="url(#25b89d8ec3)"><g clip-path="url(#6294453fcd)"><path fill="#004aad" d="M 264.289062 165.871094 L 262.570312 169.203125 L 254.613281 165.101562 L 256.332031 161.769531 Z M 264.289062 165.871094 " fill-opacity="1" fill-rule="nonzero"/></g></g><g clip-path="url(#212b3b3558)"><path fill="#ffffff" d="M 81.058594 168.496094 L 116.441406 168.496094 L 116.441406 173.109375 L 81.058594 173.109375 Z M 81.058594 168.496094 " fill-opacity="1" fill-rule="nonzero"/></g><g clip-path="url(#efbf55d89f)"><path fill="#ffffff" d="M 80.308594 149.925781 L 115.691406 149.925781 L 115.691406 154.539062 L 80.308594 154.539062 Z M 80.308594 149.925781 " fill-opacity="1" fill-rule="nonzero"/></g><g clip-path="url(#6dca6d5af4)"><path fill="#ffffff" d="M 93.519531 159.039062 L 115.675781 159.039062 L 115.675781 163.648438 L 93.519531 163.648438 Z M 93.519531 159.039062 " fill-opacity="1" fill-rule="nonzero"/></g></svg>